Release Info:

General
Format : Matroska
Format version : Version 2
File size : 734 MiB
Duration : 2h 30mn
Overall bit rate : 680 Kbps
Video
ID : 1
Format : MPEG-4 Visual
Format profile : Advanced Simple@L5
Format settings, BVOP : Yes
Format settings, QPel : No
Format settings, GMC : No warppoints
Format settings, Matrix : Custom
Codec ID : V_MS/VFW/FOURCC / XVID
Codec ID/Hint : XviD
Duration : 2h 30mn
Bit rate : 539 Kbps
Width : 608 pixels
Height : 256 pixels
Display aspect ratio : 2.40:1
Frame rate mode : Constant
Frame rate : 23.976 fps
Color space : YUV
Chroma subsampling : 4:2:0
Bit depth : 8 bits
Scan type : Progressive
Compression mode : Lossy
Bits/(Pixel*Frame) : 0.144
Stream size : 581 MiB (79%)
Language : Hindi
Default : Yes
Forced : No
Audio
ID : 2
Format : MPEG Audio
Format version : Version 1
Format profile : Layer 3
Mode : Joint stereo
Mode extension : MS Stereo
Muxing mode : Header stripping
Codec ID : A_MPEG/L3
Codec ID/Hint : MP3
Duration : 2h 30mn
Bit rate mode : Constant
Bit rate : 128 Kbps
Channel(s) : 2 channels
Sampling rate : 44.1 KHz
Compression mode : Lossy
Stream size : 138 MiB (19%)
Writing library : LAME3.98.2
Language : Hindi
Default : Yes
Forced : No
Source:
credit to original movie ripper DDR (Thanks)

IMDB Info:

Three young people learn that love can neither be defined nor contained by society's norms of normal and abnormal.
Director: Anurag Basu
Writers: Anurag Basu, Sanjeev Dutta (dialogue)
Stars: Ranbir Kapoor, Priyanka Chopra and Roopali Ganguly
Genres: Comedy | Drama | Romance 
http://www.imdb.com/title/tt2082197/

Screen Shot:
 
http://www.shotpix.com/images/95507532183443636073.png 
http://www.shotpix.com/images/09032959531312814504.png 
http://www.shotpix.com/images/62065431112745462401.png 
http://www.shotpix.com/images/44023249865040586591.png 
http://www.shotpix.com/images/90326299120185438753.png 
http://www.shotpix.com/images/20287281831853764722.png 
http://www.shotpix.com/images/79312084471707418882.png 
http://www.shotpix.com/images/85587237441328430993.png
